<?xml version="1.0" encoding="UTF-8" standalone="no"?>
<!DOCTYPE svg PUBLIC "-//W3C//DTD SVG 1.1//EN"
 "http://www.w3.org/Graphics/SVG/1.1/DTD/svg11.dtd">
<!-- Generated by graphviz version 2.44.1 (20200629.0846)
 -->
<!-- Title: controllers_diagram Pages: 1 -->
<svg width="399pt" height="477pt"
 viewBox="0.00 0.00 399.00 477.00" xmlns="http://www.w3.org/2000/svg" xmlns:xlink="http://www.w3.org/1999/xlink">
<g id="graph0" class="graph" transform="scale(1 1) rotate(0) translate(4 473)">
<title>controllers_diagram</title>
<polygon fill="transparent" stroke="transparent" points="-4,4 -4,-473 395,-473 395,4 -4,4"/>
<!-- _diagram_info -->
<g id="node1" class="node">
<title>_diagram_info</title>
<text text-anchor="start" x="188" y="-183.6" font-family="Times,serif" font-size="13.00">Controllers diagram</text>
<text text-anchor="start" x="188" y="-169.6" font-family="Times,serif" font-size="13.00">Date: Nov 30 2020 &#45; 21:39</text>
<text text-anchor="start" x="188" y="-155.6" font-family="Times,serif" font-size="13.00">Migration version: 20201130102611</text>
<text text-anchor="start" x="188" y="-141.6" font-family="Times,serif" font-size="13.00">Generated by RailRoady 1.5.3</text>
<text text-anchor="start" x="188" y="-127.6" font-family="Times,serif" font-size="13.00">http://railroady.prestonlee.com</text>
</g>
<!-- ApplicationController -->
<g id="node2" class="node">
<title>ApplicationController</title>
<path fill="none" stroke="black" d="M27,-300.5C27,-300.5 139,-300.5 139,-300.5 145,-300.5 151,-306.5 151,-312.5 151,-312.5 151,-382.5 151,-382.5 151,-388.5 145,-394.5 139,-394.5 139,-394.5 27,-394.5 27,-394.5 21,-394.5 15,-388.5 15,-382.5 15,-382.5 15,-312.5 15,-312.5 15,-306.5 21,-300.5 27,-300.5"/>
<text text-anchor="middle" x="83" y="-379.3" font-family="Times,serif" font-size="14.00">ApplicationController</text>
<polyline fill="none" stroke="black" points="15,-371.5 151,-371.5 "/>
<polyline fill="none" stroke="black" points="15,-347.5 151,-347.5 "/>
<polyline fill="none" stroke="black" points="15,-323.5 151,-323.5 "/>
<text text-anchor="start" x="23" y="-308.3" font-family="Times,serif" font-size="14.00">_layout</text>
</g>
<!-- HomeController -->
<g id="node3" class="node">
<title>HomeController</title>
<path fill="none" stroke="black" d="M267,-375.5C267,-375.5 349,-375.5 349,-375.5 355,-375.5 361,-381.5 361,-387.5 361,-387.5 361,-456.5 361,-456.5 361,-462.5 355,-468.5 349,-468.5 349,-468.5 267,-468.5 267,-468.5 261,-468.5 255,-462.5 255,-456.5 255,-456.5 255,-387.5 255,-387.5 255,-381.5 261,-375.5 267,-375.5"/>
<text text-anchor="middle" x="308" y="-453.3" font-family="Times,serif" font-size="14.00">HomeController</text>
<polyline fill="none" stroke="black" points="255,-445.5 361,-445.5 "/>
<text text-anchor="start" x="263" y="-430.3" font-family="Times,serif" font-size="14.00">index</text>
<polyline fill="none" stroke="black" points="255,-422.5 361,-422.5 "/>
<polyline fill="none" stroke="black" points="255,-398.5 361,-398.5 "/>
<text text-anchor="start" x="263" y="-383.3" font-family="Times,serif" font-size="14.00">_layout</text>
</g>
<!-- SlackController -->
<g id="node4" class="node">
<title>SlackController</title>
<path fill="none" stroke="black" d="M102,-0.5C102,-0.5 180,-0.5 180,-0.5 186,-0.5 192,-6.5 192,-12.5 192,-12.5 192,-81.5 192,-81.5 192,-87.5 186,-93.5 180,-93.5 180,-93.5 102,-93.5 102,-93.5 96,-93.5 90,-87.5 90,-81.5 90,-81.5 90,-12.5 90,-12.5 90,-6.5 96,-0.5 102,-0.5"/>
<text text-anchor="middle" x="141" y="-78.3" font-family="Times,serif" font-size="14.00">SlackController</text>
<polyline fill="none" stroke="black" points="90,-70.5 192,-70.5 "/>
<text text-anchor="start" x="98" y="-55.3" font-family="Times,serif" font-size="14.00">index</text>
<polyline fill="none" stroke="black" points="90,-47.5 192,-47.5 "/>
<polyline fill="none" stroke="black" points="90,-23.5 192,-23.5 "/>
<text text-anchor="start" x="98" y="-8.3" font-family="Times,serif" font-size="14.00">_layout</text>
</g>
<!-- Api::V1::SlackController -->
<g id="node5" class="node">
<title>Api::V1::SlackController</title>
<path fill="none" stroke="black" d="M192,-225.5C192,-225.5 322,-225.5 322,-225.5 328,-225.5 334,-231.5 334,-237.5 334,-237.5 334,-336.5 334,-336.5 334,-342.5 328,-348.5 322,-348.5 322,-348.5 192,-348.5 192,-348.5 186,-348.5 180,-342.5 180,-336.5 180,-336.5 180,-237.5 180,-237.5 180,-231.5 186,-225.5 192,-225.5"/>
<text text-anchor="middle" x="257" y="-333.3" font-family="Times,serif" font-size="14.00">Api::V1::SlackController</text>
<polyline fill="none" stroke="black" points="180,-325.5 334,-325.5 "/>
<text text-anchor="start" x="188" y="-310.3" font-family="Times,serif" font-size="14.00">authorization</text>
<text text-anchor="start" x="188" y="-295.3" font-family="Times,serif" font-size="14.00">create</text>
<text text-anchor="start" x="188" y="-280.3" font-family="Times,serif" font-size="14.00">slashcommand</text>
<polyline fill="none" stroke="black" points="180,-272.5 334,-272.5 "/>
<polyline fill="none" stroke="black" points="180,-248.5 334,-248.5 "/>
<text text-anchor="start" x="188" y="-233.3" font-family="Times,serif" font-size="14.00">_layout</text>
</g>
<!-- Api::V1::PostsController -->
<g id="node6" class="node">
<title>Api::V1::PostsController</title>
<path fill="none" stroke="black" d="M12,-120.5C12,-120.5 140,-120.5 140,-120.5 146,-120.5 152,-126.5 152,-132.5 152,-132.5 152,-261.5 152,-261.5 152,-267.5 146,-273.5 140,-273.5 140,-273.5 12,-273.5 12,-273.5 6,-273.5 0,-267.5 0,-261.5 0,-261.5 0,-132.5 0,-132.5 0,-126.5 6,-120.5 12,-120.5"/>
<text text-anchor="middle" x="76" y="-258.3" font-family="Times,serif" font-size="14.00">Api::V1::PostsController</text>
<polyline fill="none" stroke="black" points="0,-250.5 152,-250.5 "/>
<text text-anchor="start" x="8" y="-235.3" font-family="Times,serif" font-size="14.00">create</text>
<text text-anchor="start" x="8" y="-220.3" font-family="Times,serif" font-size="14.00">reveal</text>
<text text-anchor="start" x="8" y="-205.3" font-family="Times,serif" font-size="14.00">secret</text>
<polyline fill="none" stroke="black" points="0,-197.5 152,-197.5 "/>
<polyline fill="none" stroke="black" points="0,-173.5 152,-173.5 "/>
<text text-anchor="start" x="8" y="-158.3" font-family="Times,serif" font-size="14.00">_layout</text>
<text text-anchor="start" x="8" y="-143.3" font-family="Times,serif" font-size="14.00">find_post</text>
<text text-anchor="start" x="8" y="-128.3" font-family="Times,serif" font-size="14.00">post_params</text>
</g>
</g>
</svg>
