<?xml version="1.0" encoding="UTF-8" standalone="no"?>
<!DOCTYPE svg PUBLIC "-//W3C//DTD SVG 1.1//EN"
 "http://www.w3.org/Graphics/SVG/1.1/DTD/svg11.dtd">
<!-- Generated by graphviz version 2.44.1 (20200629.0846)
 -->
<!-- Title: models_diagram Pages: 1 -->
<svg width="636pt" height="158pt"
 viewBox="0.00 0.00 635.50 158.00" xmlns="http://www.w3.org/2000/svg" xmlns:xlink="http://www.w3.org/1999/xlink">
<g id="graph0" class="graph" transform="scale(1 1) rotate(0) translate(4 154)">
<title>models_diagram</title>
<polygon fill="transparent" stroke="transparent" points="-4,4 -4,-154 631.5,-154 631.5,4 -4,4"/>
<!-- _diagram_info -->
<g id="node1" class="node">
<title>_diagram_info</title>
<text text-anchor="start" x="8" y="-135.6" font-family="Times,serif" font-size="13.00">Models diagram</text>
<text text-anchor="start" x="8" y="-121.6" font-family="Times,serif" font-size="13.00">Date: Nov 30 2020 &#45; 21:39</text>
<text text-anchor="start" x="8" y="-107.6" font-family="Times,serif" font-size="13.00">Migration version: 20201130102611</text>
<text text-anchor="start" x="8" y="-93.6" font-family="Times,serif" font-size="13.00">Generated by RailRoady 1.5.3</text>
<text text-anchor="start" x="8" y="-79.6" font-family="Times,serif" font-size="13.00">http://railroady.prestonlee.com</text>
</g>
<!-- Account -->
<g id="node2" class="node">
<title>Account</title>
<ellipse fill="none" stroke="black" cx="269.5" cy="-111" rx="40.09" ry="18"/>
<text text-anchor="middle" x="269.5" y="-107.3" font-family="Times,serif" font-size="14.00">Account</text>
</g>
<!-- User -->
<g id="node6" class="node">
<title>User</title>
<ellipse fill="none" stroke="black" cx="312.5" cy="-18" rx="27.1" ry="18"/>
<text text-anchor="middle" x="312.5" y="-14.3" font-family="Times,serif" font-size="14.00">User</text>
</g>
<!-- Account&#45;&gt;User -->
<g id="edge1" class="edge">
<title>Account&#45;&gt;User</title>
<path fill="none" stroke="#3cb3aa" d="M280.9,-85.88C286.92,-73.14 294.3,-57.51 300.42,-44.56"/>
<ellipse fill="none" stroke="#3cb3aa" cx="279.1" cy="-89.69" rx="4" ry="4"/>
<polygon fill="#3cb3aa" stroke="#3cb3aa" points="300.54,-44.32 308.88,-37.2 302.67,-39.8 304.81,-35.28 304.81,-35.28 304.81,-35.28 302.67,-39.8 300.74,-33.36 300.54,-44.32 300.54,-44.32"/>
</g>
<!-- Role -->
<g id="node3" class="node">
<title>Role</title>
<ellipse fill="none" stroke="black" cx="355.5" cy="-111" rx="27.1" ry="18"/>
<text text-anchor="middle" x="355.5" y="-107.3" font-family="Times,serif" font-size="14.00">Role</text>
</g>
<!-- Role&#45;&gt;User -->
<g id="edge2" class="edge">
<title>Role&#45;&gt;User</title>
<path fill="none" stroke="#372d03" d="M343.27,-84.12C337.41,-71.72 330.42,-56.92 324.58,-44.57"/>
<polygon fill="#372d03" stroke="#372d03" points="343.34,-84.27 343.54,-95.23 345.48,-88.79 347.61,-93.31 347.61,-93.31 347.61,-93.31 345.48,-88.79 351.68,-91.39 343.34,-84.27 343.34,-84.27"/>
<polygon fill="#372d03" stroke="#372d03" points="324.46,-44.32 324.26,-33.36 322.33,-39.8 320.19,-35.28 320.19,-35.28 320.19,-35.28 322.33,-39.8 316.12,-37.2 324.46,-44.32 324.46,-44.32"/>
</g>
<!-- ApplicationRecord -->
<g id="node4" class="node">
<title>ApplicationRecord</title>
<ellipse fill="none" stroke="black" cx="478.5" cy="-111" rx="77.19" ry="18"/>
<text text-anchor="middle" x="478.5" y="-107.3" font-family="Times,serif" font-size="14.00">ApplicationRecord</text>
</g>
<!-- Post -->
<g id="node5" class="node">
<title>Post</title>
<polygon fill="none" stroke="black" points="627.5,-129 573.5,-129 573.5,-93 627.5,-93 627.5,-129"/>
<text text-anchor="middle" x="600.5" y="-107.3" font-family="Times,serif" font-size="14.00">Post</text>
</g>
</g>
</svg>
