<?xml version="1.0" encoding="UTF-8" standalone="no"?>
<!DOCTYPE svg PUBLIC "-//W3C//DTD SVG 1.1//EN"
 "http://www.w3.org/Graphics/SVG/1.1/DTD/svg11.dtd">
<!-- Generated by graphviz version 2.44.1 (20200629.0846)
 -->
<!-- Title: models_diagram Pages: 1 -->
<svg width="1020pt" height="333pt"
 viewBox="0.00 0.00 1019.50 333.00" xmlns="http://www.w3.org/2000/svg" xmlns:xlink="http://www.w3.org/1999/xlink">
<g id="graph0" class="graph" transform="scale(1 1) rotate(0) translate(4 329)">
<title>models_diagram</title>
<polygon fill="transparent" stroke="transparent" points="-4,4 -4,-329 1015.5,-329 1015.5,4 -4,4"/>
<!-- _diagram_info -->
<g id="node1" class="node">
<title>_diagram_info</title>
<text text-anchor="start" x="8" y="-288.6" font-family="Times,serif" font-size="13.00">Models diagram</text>
<text text-anchor="start" x="8" y="-274.6" font-family="Times,serif" font-size="13.00">Date: Nov 30 2020 &#45; 21:39</text>
<text text-anchor="start" x="8" y="-260.6" font-family="Times,serif" font-size="13.00">Migration version: 20201130102611</text>
<text text-anchor="start" x="8" y="-246.6" font-family="Times,serif" font-size="13.00">Generated by RailRoady 1.5.3</text>
<text text-anchor="start" x="8" y="-232.6" font-family="Times,serif" font-size="13.00">http://railroady.prestonlee.com</text>
</g>
<!-- Account -->
<g id="node2" class="node">
<title>Account</title>
<path fill="none" stroke="black" d="M241.5,-211C241.5,-211 477.5,-211 477.5,-211 483.5,-211 489.5,-217 489.5,-223 489.5,-223 489.5,-305 489.5,-305 489.5,-311 483.5,-317 477.5,-317 477.5,-317 241.5,-317 241.5,-317 235.5,-317 229.5,-311 229.5,-305 229.5,-305 229.5,-223 229.5,-223 229.5,-217 235.5,-211 241.5,-211"/>
<text text-anchor="middle" x="359.5" y="-301.8" font-family="Times,serif" font-size="14.00">Account</text>
<polyline fill="none" stroke="black" points="229.5,-294 489.5,-294 "/>
<text text-anchor="start" x="237.5" y="-278.8" font-family="Times,serif" font-size="14.00">id :bigint</text>
<text text-anchor="start" x="237.5" y="-263.8" font-family="Times,serif" font-size="14.00">name :character varying</text>
<text text-anchor="start" x="237.5" y="-248.8" font-family="Times,serif" font-size="14.00">phone_number :character varying</text>
<text text-anchor="start" x="237.5" y="-233.8" font-family="Times,serif" font-size="14.00">created_at :timestamp(6) without time zone</text>
<text text-anchor="start" x="237.5" y="-218.8" font-family="Times,serif" font-size="14.00">updated_at :timestamp(6) without time zone</text>
</g>
<!-- User -->
<g id="node6" class="node">
<title>User</title>
<path fill="none" stroke="black" d="M354,-0.5C354,-0.5 643,-0.5 643,-0.5 649,-0.5 655,-6.5 655,-12.5 655,-12.5 655,-154.5 655,-154.5 655,-160.5 649,-166.5 643,-166.5 643,-166.5 354,-166.5 354,-166.5 348,-166.5 342,-160.5 342,-154.5 342,-154.5 342,-12.5 342,-12.5 342,-6.5 348,-0.5 354,-0.5"/>
<text text-anchor="middle" x="498.5" y="-151.3" font-family="Times,serif" font-size="14.00">User</text>
<polyline fill="none" stroke="black" points="342,-143.5 655,-143.5 "/>
<text text-anchor="start" x="350" y="-128.3" font-family="Times,serif" font-size="14.00">account_id :bigint</text>
<text text-anchor="start" x="350" y="-113.3" font-family="Times,serif" font-size="14.00">email :character varying</text>
<text text-anchor="start" x="350" y="-98.3" font-family="Times,serif" font-size="14.00">encrypted_password :character varying</text>
<text text-anchor="start" x="350" y="-83.3" font-family="Times,serif" font-size="14.00">reset_password_token :character varying</text>
<text text-anchor="start" x="350" y="-68.3" font-family="Times,serif" font-size="14.00">reset_password_sent_at :timestamp without time zone</text>
<text text-anchor="start" x="350" y="-53.3" font-family="Times,serif" font-size="14.00">remember_created_at :timestamp without time zone</text>
<text text-anchor="start" x="350" y="-38.3" font-family="Times,serif" font-size="14.00">created_at :timestamp(6) without time zone</text>
<text text-anchor="start" x="350" y="-23.3" font-family="Times,serif" font-size="14.00">updated_at :timestamp(6) without time zone</text>
<text text-anchor="start" x="350" y="-8.3" font-family="Times,serif" font-size="14.00">id :bigint</text>
</g>
<!-- Account&#45;&gt;User -->
<g id="edge1" class="edge">
<title>Account&#45;&gt;User</title>
<path fill="none" stroke="#e29004" d="M405.23,-204.28C412.64,-194.75 420.47,-184.7 428.31,-174.63"/>
<ellipse fill="none" stroke="#e29004" cx="402.54" cy="-207.73" rx="4" ry="4"/>
<polygon fill="#e29004" stroke="#e29004" points="428.45,-174.46 438.14,-169.33 431.52,-170.51 434.59,-166.57 434.59,-166.57 434.59,-166.57 431.52,-170.51 431.04,-163.8 428.45,-174.46 428.45,-174.46"/>
</g>
<!-- Role -->
<g id="node3" class="node">
<title>Role</title>
<path fill="none" stroke="black" d="M519.5,-203.5C519.5,-203.5 755.5,-203.5 755.5,-203.5 761.5,-203.5 767.5,-209.5 767.5,-215.5 767.5,-215.5 767.5,-312.5 767.5,-312.5 767.5,-318.5 761.5,-324.5 755.5,-324.5 755.5,-324.5 519.5,-324.5 519.5,-324.5 513.5,-324.5 507.5,-318.5 507.5,-312.5 507.5,-312.5 507.5,-215.5 507.5,-215.5 507.5,-209.5 513.5,-203.5 519.5,-203.5"/>
<text text-anchor="middle" x="637.5" y="-309.3" font-family="Times,serif" font-size="14.00">Role</text>
<polyline fill="none" stroke="black" points="507.5,-301.5 767.5,-301.5 "/>
<text text-anchor="start" x="515.5" y="-286.3" font-family="Times,serif" font-size="14.00">id :bigint</text>
<text text-anchor="start" x="515.5" y="-271.3" font-family="Times,serif" font-size="14.00">name :character varying</text>
<text text-anchor="start" x="515.5" y="-256.3" font-family="Times,serif" font-size="14.00">resource_type :character varying</text>
<text text-anchor="start" x="515.5" y="-241.3" font-family="Times,serif" font-size="14.00">resource_id :bigint</text>
<text text-anchor="start" x="515.5" y="-226.3" font-family="Times,serif" font-size="14.00">created_at :timestamp(6) without time zone</text>
<text text-anchor="start" x="515.5" y="-211.3" font-family="Times,serif" font-size="14.00">updated_at :timestamp(6) without time zone</text>
</g>
<!-- Role&#45;&gt;User -->
<g id="edge2" class="edge">
<title>Role&#45;&gt;User</title>
<path fill="none" stroke="#c247f4" d="M584.58,-195.04C579.41,-188.41 574.12,-181.6 568.81,-174.79"/>
<polygon fill="#c247f4" stroke="#c247f4" points="584.68,-195.18 587.28,-205.83 587.76,-199.12 590.83,-203.07 590.83,-203.07 590.83,-203.07 587.76,-199.12 594.38,-200.3 584.68,-195.18 584.68,-195.18"/>
<polygon fill="#c247f4" stroke="#c247f4" points="568.73,-174.69 566.14,-164.03 565.66,-170.74 562.59,-166.8 562.59,-166.8 562.59,-166.8 565.66,-170.74 559.04,-169.56 568.73,-174.69 568.73,-174.69"/>
</g>
<!-- ApplicationRecord -->
<g id="node4" class="node">
<title>ApplicationRecord</title>
<ellipse fill="none" stroke="black" cx="862.5" cy="-264" rx="77.19" ry="18"/>
<text text-anchor="middle" x="862.5" y="-260.3" font-family="Times,serif" font-size="14.00">ApplicationRecord</text>
</g>
<!-- Post -->
<g id="node5" class="node">
<title>Post</title>
<polygon fill="none" stroke="black" points="957.5,-241 957.5,-287 1011.5,-287 1011.5,-241 957.5,-241"/>
<text text-anchor="middle" x="984.5" y="-271.8" font-family="Times,serif" font-size="14.00">Post</text>
<polyline fill="none" stroke="black" points="957.5,-264 1011.5,-264 "/>
<text text-anchor="middle" x="984.5" y="-248.8" font-family="Times,serif" font-size="14.00"> </text>
</g>
</g>
</svg>
